<?xml version="1.0" encoding="UTF-8" standalone="no"?>
<!-- Created with Inkscape (http://www.inkscape.org/) -->
<svg xmlns:dc="http://purl.org/dc/elements/1.1/" xmlns:cc="http://web.resource.org/cc/" xmlns:rdf="http://www.w3.org/1999/02/22-rdf-syntax-ns#" xmlns:svg="http://www.w3.org/2000/svg" xmlns="http://www.w3.org/2000/svg" xmlns:sodipodi="http://sodipodi.sourceforge.net/DTD/sodipodi-0.dtd" xmlns:inkscape="http://www.inkscape.org/namespaces/inkscape" id="svg1938" sodipodi:version="0.32" inkscape:version="0.44" width="300" height="314" version="1.0" sodipodi:docbase="/home/jose/Desktop" sodipodi:docname="blackGnu.svg">
  <metadata id="metadata1943">
    <rdf:RDF>
      <cc:Work rdf:about="">
        <dc:format>image/svg+xml</dc:format>
        <dc:type rdf:resource="http://purl.org/dc/dcmitype/StillImage"/>
      </cc:Work>
    </rdf:RDF>
  </metadata>
  <defs id="defs1941"/>
  <sodipodi:namedview inkscape:window-height="625" inkscape:window-width="1012" inkscape:pageshadow="2" inkscape:pageopacity="0.0" guidetolerance="10.0" gridtolerance="10.0" objecttolerance="10.0" borderopacity="1.0" bordercolor="#666666" pagecolor="#ffffff" id="base" inkscape:zoom="1.3756098" inkscape:cx="155.88653" inkscape:cy="157" inkscape:window-x="0" inkscape:window-y="46" inkscape:current-layer="svg1938"/>
  <path style="fill: black;" d="M 168.98256,305.6869 C 167.06617,301.5275 166.93944,300.48414 167.99578,297.56289 C 168.66238,295.71944 168.927,293.47948 168.58383,292.58519 C 167.77811,290.48552 162.57322,290.43962 160.84916,292.51699 C 160.1381,293.37376 157.94901,294.74634 155.98453,295.56715 C 151.26238,297.54019 147.32943,296.05269 148.35326,292.68088 C 148.72429,291.45896 149.30148,289.55921 149.6359,288.45921 C 150.18204,286.66281 150.06688,286.60449 148.50459,287.88638 C 147.54794,288.67132 146.11459,290.57175 145.31936,292.10956 C 144.10962,294.44893 143.50795,294.76263 141.6353,294.03032 C 138.12597,292.65799 123.17179,290.67141 121.96502,291.41724 C 119.7827,292.76599 116.89758,290.90694 116.8818,288.14182 C 116.85538,283.51397 115.24049,282.31531 114.48165,286.36029 C 113.74995,290.26057 112.83617,290.79563 110.89711,288.45921 C 109.47695,286.74802 103.34432,286.4266 102.36448,288.012 C 102.00662,288.59103 101.19257,288.87684 100.55547,288.64712 C 99.91837,288.41741 98.64221,288.61704 97.71955,289.09075 C 94.65236,290.6655 93.017592,289.052 92.685192,284.12188 L 92.370832,279.45921 L 91.383972,283.79928 C 90.283072,288.64088 88.546062,289.78935 88.117152,285.95921 C 87.436432,279.88034 86.813662,278.95062 81.679942,276.34916 C 65.172832,267.98438 52.012922,256.12495 38.761022,237.67154 C 34.075092,231.14633 28.956842,220.90014 24.418442,208.95921 C 19.057902,194.85515 19.104522,195.01057 17.969422,187.45921 C 16.137852,175.27442 16.063242,174.57453 15.979342,168.79086 C 15.904222,163.61287 15.525172,162.68679 11.597602,158.08552 C 6.880652,152.55946 4.330312,145.17918 5.470222,140.35383 C 7.131242,133.32257 12.621632,127.95921 18.158402,127.95921 C 20.175332,127.95921 20.707182,127.19486 21.811492,122.70921 C 23.317852,116.59044 31.545902,98.744953 35.665732,92.661293 C 44.286622,79.931044 46.886582,76.739241 54.764942,69.214476 C 74.876392,50.005652 96.20394,39.458783 127.92798,33.033985 C 142.18323,30.146992 175.35902,36.29863 195.83126,45.624985 C 198.82004,46.986556 204.34657,50.093766 208.11244,52.529895 C 211.87831,54.966024 215.6113,56.95922 216.40797,56.95922 C 217.20464,56.95922 218.75121,55.205371 219.84479,53.061777 C 220.93837,50.918184 223.21479,48.105684 224.9035,46.811777 C 226.5922,45.517871 231.37283,41.57973 235.5271,38.060354 C 239.68138,34.540978 245.4016,30.668443 248.23872,29.454722 C 259.83285,24.494739 261.91906,23.392609 262.42688,21.95922 C 263.43408,19.116229 270.0448,15.059101 274.74916,14.396792 C 280.34868,13.608458 283.59586,11.714495 285.13335,8.3400682 C 286.11449,6.1867052 291.40099,2.9592202 293.94698,2.9592202 C 296.09307,2.9592202 292.28709,22.648488 289.06845,28.197046 C 286.82834,32.058733 277.65668,34.937589 266.29096,35.346578 C 256.43592,35.701206 249.94547,38.04542 241.87772,44.164129 C 236.50994,48.235136 225.89711,58.769774 225.89711,60.026995 C 225.89711,60.53655 227.39994,62.642255 229.23673,64.706339 C 234.42343,70.534867 252.89711,98.402813 252.89711,100.39853 C 252.89711,101.00156 253.93005,103.06191 255.19253,104.97709 C 259.23328,111.10688 263.89137,122.48247 266.38348,132.30665 C 272.39814,156.01712 271.2804,181.79979 263.0821,208.45921 C 261.82013,212.56294 252.29665,231.84849 250.54686,233.84374 C 249.76766,234.73225 248.13655,237.43444 246.92218,239.84861 C 242.98803,247.66969 227.785,262.21289 213.94938,271.39035 C 207.04563,275.96976 199.14711,280.51819 196.39711,281.49797 C 189.92544,283.80374 188.89711,285.20885 188.89711,291.74597 C 188.89711,295.63162 188.30753,297.97846 186.79921,300.0967 C 185.4391,302.00679 184.90682,303.86176 185.28567,305.37124 C 185.81745,307.49 185.42682,307.78718 180.94511,308.67332 L 176.02018,309.6471 L 175.37074,305.80316 C 174.51994,300.7673 173.23759,300.92641 172.09807,306.20921 L 171.18133,310.45921 L 168.98256,305.6869 z M 142.14711,290.56716 C 143.10961,289.83652 143.89711,288.36583 143.89711,287.29897 C 143.89711,286.2321 144.39923,284.85709 145.01293,284.24339 C 145.62662,283.6297 146.64966,282.0772 147.28633,280.79339 C 148.22613,278.89838 149.45649,278.36514 153.8257,277.95921 C 159.03683,277.47506 159.2549,277.33238 160.70348,273.45921 C 162.5807,268.43998 163.00263,240.55888 161.25722,236.86899 C 160.63028,235.54361 159.58926,232.43421 158.94385,229.95921 C 158.29843,227.48421 156.25715,222.30921 154.40766,218.45921 C 152.55816,214.60921 150.53877,209.43421 149.92013,206.95921 C 149.30148,204.48421 148.06824,200.65921 147.1796,198.45921 C 146.29096,196.25921 145.30136,192.47019 144.9805,190.03916 C 144.01831,182.74917 141.89711,183.67809 141.89711,191.38945 C 141.89711,195.01774 141.49701,198.76774 141.008,199.72278 C 140.51899,200.67782 139.04245,206.01544 137.72681,211.58417 C 135.97435,219.00184 135.56425,222.59487 136.1931,225.02166 C 136.91465,227.80623 136.71783,228.58584 134.95821,229.91312 C 133.15598,231.27255 132.72599,233.15813 131.86541,243.47564 C 131.31566,250.0666 130.37593,257.97825 129.77713,261.05707 C 128.87924,265.67367 128.95694,267.17424 130.22039,269.61748 C 131.13637,271.38878 131.69883,274.86784 131.61918,278.26962 C 131.49004,283.78508 130.77435,285.18763 129.30348,282.80772 C 128.42231,281.38195 125.89711,284.52188 125.89711,287.04335 C 125.89711,289.13734 127.92266,290.0753 134.39711,290.97941 C 137.14711,291.36342 139.62211,291.72666 139.89711,291.78661 C 140.17211,291.84656 141.18461,291.29781 142.14711,290.56716 z M 172.89711,289.05068 C 174.82211,288.55713 177.57764,287.89036 179.02052,287.56898 C 182.15495,286.87083 184.3366,282.37984 183.53525,278.27526 C 183.23287,276.72643 182.69257,270.28421 182.33458,263.95921 C 181.9766,257.63421 181.48768,252.13388 181.24811,251.73626 C 181.00853,251.33864 180.59878,249.34393 180.33755,247.30358 C 180.07632,245.26322 178.54679,240.86355 176.9386,237.52652 C 175.33041,234.1895 173.76294,230.63429 173.45534,229.62605 C 172.61719,226.87885 170.36747,228.27277 170.59621,231.39755 C 170.70571,232.8935 171.7643,236.11915 172.94864,238.56565 C 175.36724,243.56181 175.26054,245.71497 171.96284,258.45921 C 168.34567,272.43808 167.54801,276.38396 167.71767,279.45921 C 167.91158,282.97396 167.35811,283.89367 163.61524,286.27624 C 162.08522,287.2502 161.09928,288.4773 161.42426,289.00314 C 162.16729,290.20539 168.29443,290.23078 172.89711,289.05068 z M 109.39711,283.5545 C 109.39711,280.49945 106.27606,279.14679 104.16587,281.28728 C 102.4736,283.00385 102.48277,283.14492 104.37777,284.54923 C 106.93003,286.44061 109.39711,285.95168 109.39711,283.5545 z M 196.10102,279.26094 C 216.62302,271.04967 242.38908,246.60005 253.32651,224.95921 C 257.60882,216.48623 262.92265,202.95219 263.92745,197.95921 C 264.42553,195.48421 265.02729,192.54708 265.2647,191.43226 C 268.53338,176.08353 268.36571,156.44492 264.82522,139.95921 C 263.70309,134.73421 262.64748,129.33421 262.47942,127.95921 C 261.55918,120.43025 252.96311,103.76154 239.2729,82.95922 C 233.66463,74.437432 227.57974,68.483292 225.35253,69.337953 C 223.903,69.894189 223.76589,70.909594 224.3738,76.586144 C 225.0679,83.067517 223.62656,103.58554 221.92405,111.45922 C 219.86279,120.99209 216.93489,130.25998 215.47488,131.87328 C 214.60711,132.83216 213.89711,134.15499 213.89711,134.81291 C 213.89711,136.66311 207.25253,149.41935 205.5549,150.82825 C 204.35407,151.82485 204.25848,152.6974 205.08909,155.08008 C 205.98585,157.65252 205.81403,158.41874 203.87839,160.47914 C 200.79081,163.76571 201.65771,169.40437 205.82875,173.16506 L 208.82985,175.87092 L 205.86348,177.98316 C 204.23198,179.14489 202.89711,180.5623 202.89711,181.13295 C 202.89711,181.7036 201.78857,183.48792 200.4337,185.0981 C 198.33131,187.59664 198.13473,188.38662 199.09236,190.48839 C 199.99019,192.45892 199.90103,193.30163 198.6462,194.70515 C 197.78366,195.66988 196.30575,198.83612 195.36195,201.74123 C 194.41815,204.64635 192.80246,207.47468 191.77153,208.02642 C 189.77304,209.09598 189.236,212.43259 190.89711,213.45921 C 192.42389,214.40281 192.08766,217.67211 190.39711,218.32084 C 188.0709,219.21349 188.4848,224.66818 190.98007,226.00361 C 192.9261,227.04509 192.95468,227.23811 191.41483,228.93963 C 189.0402,231.56356 190.98473,238.58638 194.53362,240.20336 C 197.40346,241.51095 197.39724,243.10688 194.47609,254.95921 C 190.5752,270.78679 189.35036,280.95921 191.34549,280.95921 C 191.62662,280.95921 193.76661,280.19499 196.10102,279.26094 z M 91.657252,274.31393 C 92.795222,272.75175 96.00258,270.76708 99.49065,269.46672 L 105.39711,267.26479 L 105.67961,256.74352 C 105.83498,250.95681 105.49693,242.90056 104.92838,238.84072 C 101.85229,216.87525 100.57912,204.8425 100.77358,199.57353 C 100.95391,194.68726 100.61363,193.28637 98.76964,191.32353 C 97.548,190.02315 95.99637,188.95921 95.32157,188.95921 C 94.64677,188.95921 93.165392,187.38421 92.029612,185.45921 C 89.745862,181.58854 88.766132,181.23304 86.534052,183.46513 C 84.819812,185.17937 84.668472,185.64675 82.429842,196.1407 C 80.991692,202.88221 80.302802,204.26341 76.800222,207.42778 C 73.243982,210.64062 72.405592,210.96055 69.103192,210.36495 C 67.064852,209.99732 65.052272,209.49954 64.630802,209.25877 C 63.193072,208.43746 65.009312,206.95921 67.456132,206.95921 C 70.887692,206.95921 70.575792,204.25238 66.903432,202.1627 C 65.256912,201.22578 63.906912,199.69827 63.903432,198.76823 C 63.899952,197.83819 63.416432,196.78017 62.828932,196.41708 C 62.241442,196.05398 62.018242,195.08593 62.332942,194.26585 C 62.803992,193.0383 61.993292,192.83526 57.745752,193.117 C 54.479632,193.33363 52.441932,193.03831 52.192742,192.3122 C 51.531332,190.38493 57.813512,186.69902 62.179612,186.45267 C 66.679052,186.1988 69.541442,183.64444 70.438272,179.08276 C 70.721952,177.63981 71.326542,175.28957 71.781802,173.86 C 72.544982,171.46353 72.386942,171.26854 69.755612,171.36 C 66.858402,171.46071 66.082152,172.3375 67.897112,173.45921 C 69.503622,174.45209 69.049322,179.55151 67.147112,181.87772 C 65.999242,183.28146 63.588132,184.30082 60.139552,184.84036 C 57.247902,185.29276 54.062462,186.40458 53.060812,187.31106 C 49.993652,190.08681 48.563832,189.40039 49.203402,185.45921 C 49.722352,182.26125 49.561052,181.95921 47.334242,181.95921 C 44.622542,181.95921 40.897112,178.77614 40.897112,176.45921 C 40.897112,175.63421 41.797112,174.05921 42.897112,172.95921 C 43.997112,171.85921 44.897112,170.50921 44.897112,169.95921 C 44.897112,168.44746 42.306212,168.76135 40.911322,170.44209 C 39.705642,171.89484 32.885932,174.28136 32.122322,173.51775 C 31.909332,173.30476 32.301282,172.07946 32.993312,170.79486 C 34.344832,168.28606 35.881262,153.95921 34.798792,153.95921 C 34.050922,153.95921 32.897112,159.12341 32.897112,162.47067 C 32.897112,164.37624 32.205532,164.83583 28.502412,165.39115 C 26.085332,165.75361 22.984422,165.76824 21.611512,165.42366 C 20.234092,165.07795 18.821392,165.2727 18.459552,165.85818 C 18.098892,166.44174 18.301892,171.7657 18.910662,177.6892 C 20.585772,193.98857 29.144542,218.43916 37.732502,231.45921 C 47.538932,246.32656 65.033372,264.3773 76.166092,271.11495 C 79.889022,273.36811 83.178082,275.60482 83.475102,276.08541 C 84.684202,278.04177 89.738902,276.9474 91.657252,274.31393 z M 118.2617,272.68188 C 119.817,271.54462 119.87318,270.89845 118.77406,266.78897 C 117.7377,262.9141 117.81136,260.83221 119.23309,253.8163 C 120.16452,249.2199 120.9145,244.55921 120.89971,243.45921 C 120.82217,237.69038 122.02281,219.57074 122.88757,213.45921 C 124.10691,204.8418 123.54701,197.11665 121.40253,192.96969 C 119.25679,188.82028 117.78648,189.53335 116.13054,195.52648 C 114.3372,202.0169 113.30683,223.98774 114.67582,226.54572 C 115.33701,227.78118 115.40243,230.28324 114.85683,233.46972 C 114.38697,236.21394 113.86631,246.4469 113.69982,256.20963 C 113.43482,271.74865 113.59132,273.96 114.95598,273.95963 C 115.81336,273.9594 117.30093,273.38441 118.2617,272.68188 z M 57.997732,167.70921 C 60.248802,165.04525 61.062642,164.65241 62.511042,165.53065 C 65.198432,167.16016 65.695382,169.4568 63.054802,168.0436 C 61.316232,167.11315 60.793882,167.28357 59.822762,169.09813 C 58.793292,171.02172 58.872042,171.17513 60.530772,170.47732 C 61.557262,170.04549 63.184612,169.72429 64.147112,169.76354 C 65.210842,169.80693 65.897112,169.10705 65.897112,167.97885 C 65.897112,161.59691 60.975642,161.09424 56.090642,166.97724 C 54.272092,169.16732 53.339322,170.95921 54.017822,170.95921 C 54.696322,170.95921 56.487282,169.49671 57.997732,167.70921 z M 46.713532,156.63209 C 46.940112,154.71812 46.576292,153.95921 45.432152,153.95921 C 43.538472,153.95921 42.436732,156.31711 43.290652,158.54237 C 44.194212,160.89702 46.351142,159.69326 46.713532,156.63209 z M 102.49598,158.34527 C 105.61034,156.86741 107.22549,153.95921 104.93191,153.95921 C 104.40104,153.95921 102.38744,152.5726 100.45724,150.87786 L 96.94778,147.79652 L 99.91917,144.62786 C 106.02217,138.11971 107.63612,124.64423 103.3727,115.79326 L 101.60684,112.1273 L 106.70829,104.64139 C 109.51409,100.52413 112.10808,95.966843 112.4727,94.514063 C 112.83732,93.061293 114.24833,91.104633 115.60826,90.165943 C 116.9682,89.227243 118.82703,87.626363 119.73899,86.608434 C 120.65096,85.590502 124.65784,82.326097 128.64317,79.3542 C 132.6285,76.382303 137.1285,72.539944 138.64317,70.815623 C 144.32236,64.350347 144.12364,64.433095 145.31535,68.037303 C 146.72709,72.307009 147.78341,72.525602 152.275,69.477527 C 155.32015,67.411029 156.38211,67.148416 158.0607,68.046771 C 159.63833,68.891091 161.13257,68.75911 164.48319,67.479494 C 169.56759,65.537744 170.89711,66.029986 170.89711,69.854192 C 170.89711,73.321099 178.6564,80.889998 184.89711,83.510676 C 191.29655,86.198011 191.86452,87.509603 191.8861,99.650203 C 191.89216,103.05524 192.2818,106.07894 192.75197,106.36952 C 193.22214,106.6601 194.8467,110.29735 196.36209,114.45228 C 199.54313,123.17415 201.43416,124.76709 205.87866,122.46875 C 212.85272,118.86232 214.50668,112.0336 215.35483,83.344317 L 216.00862,61.229414 L 209.63874,56.223519 C 203.26936,51.218017 191.67402,45.800189 178.89711,41.859733 C 163.04342,36.970387 159.56798,36.044599 158.81467,36.510168 C 158.37332,36.782937 153.59882,36.610786 148.20466,36.12761 C 135.99527,35.033966 118.22351,37.156227 111.49347,40.511574 C 109.89647,41.307779 107.61024,41.95922 106.41295,41.95922 C 105.21566,41.95922 102.08614,43.047648 99.45846,44.377949 C 96.83078,45.70825 93.519472,47.08817 92.099982,47.444438 C 90.680502,47.800706 88.366652,48.903515 86.958102,49.895125 C 85.549562,50.886734 82.597112,52.61054 80.397112,53.725804 C 78.197112,54.841068 75.135372,56.925812 73.593242,58.358567 C 72.051112,59.791322 69.576112,61.595379 68.093242,62.367583 C 64.523112,64.226725 43.262192,86.347065 41.213842,90.333523 C 40.330502,92.052653 38.753362,94.584223 37.709092,95.959223 C 32.086462,103.3626 28.710322,109.62385 26.816432,116.16031 C 23.252012,128.46235 23.261872,128.32219 26.002982,127.73194 C 27.319752,127.44839 29.246012,126.86183 30.283562,126.42846 C 34.170782,124.80481 31.299712,128.45792 26.940662,130.68191 C 20.862352,133.78306 18.033722,136.71407 17.289202,140.6827 C 16.521912,144.77273 19.215142,151.46626 22.492032,153.61336 C 26.848452,156.4678 32.869942,152.64098 32.919072,146.9867 C 32.956442,142.6865 36.573312,136.12705 40.088972,133.98361 C 41.908442,132.8743 45.000422,131.965 46.960022,131.96295 C 49.620542,131.96016 51.260222,131.18964 53.433982,128.92072 C 60.026082,122.04006 64.645562,121.881 77.124912,128.10501 C 81.375202,130.22482 85.650202,131.9449 86.624912,131.92741 C 92.021052,131.83057 93.653052,124.82744 89.647112,118.9587 C 85.185402,112.42227 75.658362,109.98875 69.397112,113.78619 C 64.586132,116.70404 59.869812,118.04368 58.035122,117.01348 C 56.574302,116.19322 56.613462,116.01272 58.397112,115.34494 C 59.497112,114.93311 62.872112,112.50424 65.897112,109.94743 C 71.149552,105.50795 76.987412,102.95922 81.903602,102.95922 C 89.094142,102.95922 100.94962,113.02959 103.37535,121.1979 C 105.32324,127.75714 105.30068,128.37584 102.84887,135.63605 C 100.27377,143.26131 97.03555,146.63885 93.905812,144.96387 C 89.541472,142.62814 91.006132,144.78723 97.36417,150.06192 C 103.26972,154.96122 103.70977,155.58162 102.13355,156.78592 C 100.28707,158.19671 89.190292,157.98433 85.397112,156.46561 C 83.733752,155.79964 83.611642,155.89575 84.671662,157.03659 C 85.741932,158.18846 89.219682,158.92842 97.74598,159.81841 C 98.48786,159.89585 100.62536,159.23294 102.49598,158.34527 z M 64.606252,155.06056 C 69.658322,153.06357 70.253602,146.78673 65.559172,145.01262 C 61.574712,143.50683 59.897112,145.45198 59.897112,151.57773 C 59.897112,154.62921 60.234612,156.94659 60.647112,156.72747 C 61.059612,156.50835 62.841222,155.75824 64.606252,155.06056 z " id="path1949" sodipodi:nodetypes="csssssssssssssssscccsssssssssssssssssssssssssssssssssssssssscccccccssssssssssssssssssssssssccsssssssssssssccssccsssssssssssssscccssssssssssssscccccssssssssssssssssssssssssssssssssssssssssssccssssssssssccssssssssccssccsccccccssssssssssssssscccsssssssssssssssssssssssssssssssssssssssccsssc"/>
</svg>